<svg width="14" height="14" viewBox="0 0 14 14" fill="none" xmlns="http://www.w3.org/2000/svg">
<path d="M11.7 2.27329C11.0888 1.65591 10.3608 1.1664 9.55843 0.833326C8.75607 0.500248 7.89541 0.330265 7.02667 0.333292C3.38667 0.333292 0.420002 3.29996 0.420002 6.93996C0.420002 8.10662 0.726669 9.23996 1.3 10.24L0.366669 13.6666L3.86667 12.7466C4.83334 13.2733 5.92 13.5533 7.02667 13.5533C10.6667 13.5533 13.6333 10.5866 13.6333 6.94662C13.6333 5.17996 12.9467 3.51996 11.7 2.27329ZM7.02667 12.4333C6.04 12.4333 5.07334 12.1666 4.22667 11.6666L4.02667 11.5466L1.94667 12.0933L2.5 10.0666L2.36667 9.85996C1.8185 8.9846 1.52743 7.97279 1.52667 6.93996C1.52667 3.91329 3.99334 1.44663 7.02 1.44663C8.48667 1.44663 9.86667 2.01996 10.9 3.05996C11.4117 3.56927 11.8171 4.17507 12.0929 4.84224C12.3687 5.50942 12.5094 6.2247 12.5067 6.94662C12.52 9.97329 10.0533 12.4333 7.02667 12.4333ZM10.04 8.32662C9.87333 8.24662 9.06 7.84663 8.91334 7.78662C8.76 7.73329 8.65334 7.70662 8.54 7.86662C8.42667 8.03329 8.11334 8.40662 8.02 8.51329C7.92667 8.62663 7.82667 8.63996 7.66 8.55329C7.49334 8.47329 6.96 8.29329 6.33334 7.73329C5.84 7.29329 5.51334 6.75329 5.41334 6.58663C5.32 6.41996 5.4 6.33329 5.48667 6.24662C5.56 6.17329 5.65334 6.05329 5.73334 5.95996C5.81334 5.86662 5.84667 5.79329 5.9 5.68662C5.95334 5.57329 5.92667 5.47996 5.88667 5.39996C5.84667 5.31996 5.51334 4.50663 5.38 4.17329C5.24667 3.85329 5.10667 3.89329 5.00667 3.88663H4.68667C4.57334 3.88663 4.4 3.92663 4.24667 4.09329C4.1 4.25996 3.67334 4.65996 3.67334 5.47329C3.67334 6.28663 4.26667 7.07329 4.34667 7.17996C4.42667 7.29329 5.51334 8.95996 7.16667 9.67329C7.56 9.84663 7.86667 9.94663 8.10667 10.02C8.5 10.1466 8.86 10.1266 9.14667 10.0866C9.46667 10.04 10.1267 9.68662 10.26 9.29996C10.4 8.91329 10.4 8.58663 10.3533 8.51329C10.3067 8.43996 10.2067 8.40662 10.04 8.32662Z" fill="#636363"/>
</svg>
