<svg width="30" height="30" viewBox="0 0 30 30" fill="none" xmlns="http://www.w3.org/2000/svg">
<path d="M25.575 4.36497C24.1998 2.97586 22.5617 1.87447 20.7564 1.12504C18.9511 0.375619 17.0146 -0.00684224 15.06 -3.27159e-05C6.86995 -3.27159e-05 0.194951 6.67497 0.194951 14.865C0.194951 17.49 0.884951 20.04 2.17495 22.29L0.0749512 30L7.94995 27.93C10.125 29.115 12.57 29.745 15.06 29.745C23.25 29.745 29.925 23.07 29.925 14.88C29.925 10.905 28.38 7.16997 25.575 4.36497ZM15.06 27.225C12.84 27.225 10.665 26.625 8.75995 25.5L8.30995 25.23L3.62995 26.46L4.87495 21.9L4.57495 21.435C3.34157 19.4654 2.68666 17.1888 2.68495 14.865C2.68495 8.05497 8.23495 2.50497 15.045 2.50497C18.3449 2.50497 21.45 3.79497 23.775 6.13497C24.9262 7.28091 25.8385 8.64396 26.459 10.1451C27.0796 11.6462 27.396 13.2556 27.39 14.88C27.42 21.69 21.87 27.225 15.06 27.225ZM21.84 17.985C21.465 17.805 19.635 16.905 19.305 16.77C18.96 16.65 18.72 16.59 18.465 16.95C18.21 17.325 17.5049 18.165 17.295 18.405C17.085 18.66 16.86 18.69 16.485 18.495C16.11 18.315 14.91 17.91 13.5 16.65C12.39 15.66 11.655 14.445 11.43 14.07C11.22 13.695 11.4 13.5 11.5949 13.305C11.76 13.14 11.97 12.87 12.15 12.66C12.33 12.45 12.405 12.285 12.525 12.045C12.645 11.79 12.585 11.58 12.495 11.4C12.405 11.22 11.655 9.38997 11.3549 8.63997C11.055 7.91997 10.74 8.00997 10.515 7.99497H9.79495C9.53995 7.99497 9.14995 8.08497 8.80495 8.45997C8.47495 8.83497 7.51495 9.73497 7.51495 11.565C7.51495 13.395 8.84995 15.165 9.02995 15.405C9.20995 15.66 11.655 19.41 15.375 21.015C16.26 21.405 16.95 21.63 17.49 21.795C18.375 22.08 19.185 22.035 19.83 21.945C20.55 21.84 22.035 21.045 22.3349 20.175C22.65 19.305 22.65 18.57 22.545 18.405C22.44 18.24 22.215 18.165 21.84 17.985Z" fill="white"/>
</svg>
